<?xml version="1.0" encoding="UTF-8"?>
<svg version="1.1" xmlns="http://www.w3.org/2000/svg" width="1080" height="1080">
<path d="M0 0 C1.29337043 -0.00581376 2.58674087 -0.01162753 3.91930434 -0.01761746 C7.48631985 -0.03308589 11.05289793 -0.02393174 14.61990571 -0.01050565 C18.50931033 -0.00030926 22.39865068 -0.01341805 26.28804606 -0.02347898 C33.09724504 -0.03789522 39.90631706 -0.03750634 46.71552181 -0.02729034 C56.84130637 -0.01213983 66.96698412 -0.0199061 77.092768 -0.03212357 C95.17982594 -0.05317489 113.26682734 -0.05136545 131.35389065 -0.03980792 C147.18412735 -0.02974231 163.01434332 -0.02712047 178.84458256 -0.0318985 C180.42019447 -0.03235681 180.42019447 -0.03235681 182.02763693 -0.03282438 C186.29170996 -0.03406976 190.55578298 -0.03534336 194.81985599 -0.03666343 C234.81654839 -0.04889804 274.81320479 -0.03780828 314.80989163 -0.01627585 C350.33191984 0.00270225 385.85389068 0.00101139 421.37591839 -0.01811981 C461.29532857 -0.03954751 501.21470694 -0.04802618 541.13412207 -0.03567076 C545.3913178 -0.03438792 549.64851353 -0.03313655 553.90570927 -0.0318985 C554.95392036 -0.03158219 556.00213145 -0.03126588 557.08210652 -0.03093999 C572.89895831 -0.02639347 588.71578708 -0.03170499 604.53263569 -0.04181671 C622.52263509 -0.05326046 640.51256914 -0.05038031 658.50256041 -0.02869374 C668.56621879 -0.01696178 678.62973559 -0.0161627 688.69339024 -0.03127843 C695.42151446 -0.040268 702.14952552 -0.03462966 708.87763302 -0.01725936 C712.70715054 -0.00777379 716.53638747 -0.00442835 720.36589584 -0.01888329 C754.71602265 -0.13888139 773.17197957 8.85867549 799.33661175 30.64350128 C802.27113362 33.08083094 805.21999664 35.5004493 808.16888714 37.92035675 C813.98772287 42.69660992 819.77945133 47.50043353 825.51336956 52.37836456 C829.85724877 56.07329455 834.2609877 59.6773892 838.72821331 63.22211456 C847.77091789 70.46620163 856.68818082 77.87118039 865.51336956 85.37836456 C869.8622382 89.07750841 874.27087801 92.68581473 878.74383831 96.23383331 C884.655874 100.97161639 890.47819411 105.8202182 896.32049847 110.64350128 C898.54261704 112.47594329 900.76767307 114.30474792 902.99383831 116.13227081 C910.04944925 121.92662305 917.08256073 127.74227759 924.03241253 133.66327667 C927.4630452 136.58110519 930.94400307 139.42785936 934.45086956 142.25336456 C949.75331051 154.78362418 957.09477853 167.45207824 959.17272472 187.30679703 C960.10482969 197.88929911 959.85296831 208.55098292 959.83465862 219.16400909 C959.83737345 221.82195253 959.84086581 224.47988489 959.84527874 227.13782501 C959.85410974 233.56883157 959.85227925 239.99979108 959.84645346 246.43079938 C959.84191274 251.66243871 959.8413344 256.89406498 959.84350109 262.12570572 C959.84380756 262.8739698 959.84411402 263.62223389 959.84442978 264.39317264 C959.84506931 265.9138446 959.84571774 267.43451655 959.84637496 268.9551885 C959.8520596 283.16904727 959.84554937 297.38288011 959.83477423 311.59673463 C959.82583674 323.76272709 959.82739602 335.92868138 959.83661175 348.09467316 C959.84734113 362.26527816 959.85151431 376.43586054 959.84538722 390.60646904 C959.8447502 392.120531 959.84412146 393.63459297 959.84350109 395.14865494 C959.84319254 395.89336746 959.84288399 396.63807998 959.84256609 397.40535954 C959.84084741 402.62482266 959.84373622 407.84427128 959.8484602 413.06373215 C959.85409863 419.43275685 959.85249066 425.80173233 959.84189871 432.17075147 C959.83668211 435.41318648 959.83561277 438.65552384 959.84119701 441.89796066 C959.89792821 478.20075047 959.89792821 478.20075047 951.88836956 491.25336456 C943.15901718 499.7467885 932.25284877 500.81074635 920.62174988 500.75225353 C919.00935369 500.75616446 919.00935369 500.75616446 917.36438385 500.7601544 C913.76174891 500.7664516 910.15928848 500.75849274 906.55665874 500.75060272 C903.94786966 500.75219104 901.33908098 500.75465486 898.73029345 500.75791913 C893.05778177 500.76359703 887.38531014 500.7618599 881.71280003 500.75523376 C873.27728051 500.74540738 864.84179025 500.74705083 856.40626732 500.75098406 C842.21190323 500.75725793 828.01755576 500.75408876 813.82319355 500.74538994 C799.76076192 500.73677394 785.69833775 500.73186981 771.63590336 500.73205757 C770.76099625 500.73206522 769.88608914 500.73207286 768.9846697 500.73208074 C765.43307124 500.73212165 761.88147278 500.73218726 758.32987432 500.73228655 C725.00826527 500.73319273 691.68666758 500.72324704 658.36506247 500.70785689 C628.77151148 500.69423891 599.17796857 500.68799536 569.58441448 500.6886673 C567.68493161 500.68870771 565.78544873 500.68874807 563.88596586 500.68878838 C562.47735472 500.6888189 562.47735472 500.6888189 561.04028679 500.68885005 C556.31294236 500.68895084 551.58559792 500.68904143 546.85825348 500.68912029 C545.45925632 500.68914536 545.45925632 500.68914536 544.0319966 500.68917094 C519.29630914 500.68953634 494.5606227 500.68499479 469.82493609 500.67879373 C468.94467773 500.67857346 468.06441938 500.67835318 467.15748652 500.67812624 C463.61786978 500.67723802 460.07825305 500.67634961 456.53863632 500.67543528 C444.23491447 500.67227835 431.93119342 500.67076641 419.6274712 500.67032379 C403.76624171 500.669726 387.90501887 500.66571819 372.04379223 500.65589233 C363.6594489 500.65078762 355.27511534 500.64836452 346.89077054 500.64988852 C340.62493656 500.65071199 334.35911648 500.64628918 328.093286 500.63983802 C325.56236773 500.63802944 323.0314476 500.63788975 320.50052927 500.63960531 C294.62628677 500.65519915 273.03345003 499.00146431 249.57586956 487.50336456 C248.4485844 486.95148468 247.32129925 486.3996048 246.15985394 485.83100128 C233.08105901 479.40847103 220.07620602 472.84488346 207.21283245 465.99994659 C200.88174036 462.63727607 194.47537323 459.43801668 188.0538969 456.25214386 C181.55536076 453.01805042 175.13199075 449.65586669 168.72040081 446.25336456 C163.04622755 443.25214896 157.32596112 440.35612317 151.57586956 437.50336456 C144.23167641 433.85973385 136.96200174 430.09633687 129.72040081 426.25336456 C124.04622755 423.25214896 118.32596112 420.35612317 112.57586956 417.50336456 C105.23167641 413.85973385 97.96200174 410.09633687 90.72040081 406.25336456 C85.04622755 403.25214896 79.32596112 400.35612317 73.57586956 397.50336456 C66.23167641 393.85973385 58.96200174 390.09633687 51.72040081 386.25336456 C46.04622118 383.25214558 40.32585267 380.35635008 34.57586956 377.50336456 C26.47110434 373.47883742 18.44563122 369.32334694 10.45477581 365.07758331 C7.02045023 363.25553152 3.5683508 361.47312533 0.10321331 359.71039581 C-32.22769527 343.20359813 -32.22769527 343.20359813 -37.61045152 327.29267555 C-40.18479702 318.46775699 -40.71761932 309.58235331 -40.68482685 300.44197845 C-40.6886524 299.28933595 -40.69247795 298.13669344 -40.69641942 296.94912237 C-40.70666813 293.11958069 -40.70277278 289.29019123 -40.69878864 285.46063995 C-40.70204894 282.70166852 -40.70826021 279.94270533 -40.71427631 277.18373871 C-40.72697708 270.4873564 -40.72882286 263.79101429 -40.72647605 257.09462196 C-40.72468778 251.64831429 -40.72645341 246.20201874 -40.73070049 240.75571251 C-40.73129568 239.97843992 -40.73189087 239.20116732 -40.7325041 238.40034102 C-40.73371593 236.82095993 -40.73493007 235.24157884 -40.73614647 233.66219776 C-40.7470039 218.87615295 -40.74486787 204.09013098 -40.73876163 189.30408489 C-40.73359233 175.79856105 -40.74485146 162.29310933 -40.76385985 148.78759975 C-40.7832639 134.89364779 -40.79148986 120.99972992 -40.78773659 107.10576433 C-40.78582867 99.31592619 -40.7882723 91.52614944 -40.80245113 83.7363224 C-40.81439859 77.10579668 -40.81573216 70.47537015 -40.80366097 63.84484298 C-40.79779612 60.46692372 -40.79825158 57.08933328 -40.80866337 53.71140289 C-40.81916627 50.03801416 -40.81100121 46.36510623 -40.79835224 42.69173431 C-40.80572653 41.64053927 -40.81310081 40.58934423 -40.82069856 39.50629479 C-40.73058962 26.9925149 -38.43976681 16.12056457 -29.92413044 6.75336456 C-21.52768824 0.39613244 -10.08186858 -0.07997213 0 0 Z " fill="#E8E8E8" transform="translate(65.4241304397583,291.4966354370117)"/>
<path d="M0 0 C0.66 0.33 1.32 0.66 2 1 C0.63875 2.2065625 0.63875 2.2065625 -0.75 3.4375 C-10.62879233 13.47977116 -9.15320811 27.97692249 -9.13371277 41.11244202 C-9.13597833 42.25847741 -9.13824388 43.4045128 -9.14057809 44.58527654 C-9.14685672 48.38637004 -9.14609272 52.18742732 -9.14526367 55.98852539 C-9.14771839 58.72955966 -9.15163443 61.47059147 -9.15544128 64.21162415 C-9.16370598 70.86006663 -9.16649417 77.50850024 -9.16705366 84.15694744 C-9.16753055 89.5636675 -9.16959387 94.97038466 -9.17275429 100.37710381 C-9.18154727 115.73401934 -9.18617546 131.09092793 -9.18542381 146.447846 C-9.18538386 147.27370184 -9.1853439 148.09955768 -9.18530273 148.95043945 C-9.18526185 149.77731234 -9.18522097 150.60418524 -9.18517885 151.45611488 C-9.18477214 164.86523607 -9.19435153 178.27432922 -9.2084411 191.6834423 C-9.22282167 205.47910519 -9.22971045 219.27475441 -9.22884732 233.07042497 C-9.22851607 240.80487184 -9.23123203 248.53928924 -9.24202538 256.27372932 C-9.25115223 262.85556482 -9.2532875 269.43735748 -9.24651595 276.01919658 C-9.24326254 279.37263842 -9.24424933 282.7259315 -9.2518692 286.07937622 C-9.25961368 289.72450397 -9.25492801 293.36941831 -9.24723816 297.01454163 C-9.25238172 298.0601855 -9.25752529 299.10582936 -9.26282471 300.18315941 C-9.20180304 313.33579432 -7.31784794 324.40948285 1.4375 334.6875 C3.09054188 336.15536163 3.09054188 336.15536163 5.625 337.5 C8 339 8 339 9 342 C1.50922275 339.39903568 -3.28843292 333.88780011 -6.875 326.9375 C-11.57942176 316.59724412 -12.1495296 306.59020617 -12.14044189 295.41963196 C-12.14341302 294.27040715 -12.14638414 293.12118234 -12.1494453 291.93713254 C-12.15810076 288.09520657 -12.15963787 284.25331188 -12.16113281 280.41137695 C-12.16522799 277.65299803 -12.17076791 274.89462234 -12.17617798 272.13624573 C-12.18972435 264.64848369 -12.19578006 257.16072704 -12.20018864 249.6729548 C-12.20295697 244.99258769 -12.20719535 240.31222264 -12.21169281 235.63185692 C-12.22387997 222.6585074 -12.23418081 209.68515951 -12.2375679 196.71180439 C-12.23778747 195.88248929 -12.23800703 195.05317419 -12.23823325 194.19872833 C-12.23845153 193.36749877 -12.23866981 192.53626921 -12.2388947 191.67985088 C-12.23933816 189.99563301 -12.23978472 188.31141514 -12.24023438 186.62719727 C-12.2404558 185.79177795 -12.24067723 184.95635863 -12.24090537 184.09562358 C-12.244852 170.56398322 -12.26230438 157.03239676 -12.2855939 143.50077722 C-12.30934357 129.58887638 -12.32177137 115.67700254 -12.32293582 101.76508111 C-12.32385048 93.9617638 -12.32954999 86.15851676 -12.34775543 78.35521889 C-12.36320522 71.70996385 -12.3682482 65.06480081 -12.36001733 58.4195312 C-12.35612814 55.03353354 -12.35860904 51.64787049 -12.37107468 48.26187134 C-12.38383245 44.57951913 -12.37789609 40.89763581 -12.36749268 37.21528625 C-12.37554908 36.16136273 -12.38360548 35.10743921 -12.39190602 34.02157861 C-12.3113669 21.75993955 -10.16320534 10.66292469 -1.6875 1.5 C-1.130625 1.005 -0.57375 0.51 0 0 Z " fill="#4F4F4F" transform="translate(37,297)"/>
<path d="M0 0 C0.33 0 0.66 0 1 0 C3.24104659 14.55031968 3.28414289 28.96455195 3.25878906 43.66064453 C3.26150389 46.31858797 3.26499625 48.97652032 3.26940918 51.63446045 C3.27824018 58.065467 3.27640969 64.49642652 3.2705839 70.92743482 C3.26604318 76.15907415 3.26546484 81.39070042 3.26763153 86.62234116 C3.267938 87.37060524 3.26824446 88.11886933 3.26856022 88.88980808 C3.26919975 90.41048004 3.26984817 91.93115199 3.2705054 93.45182393 C3.27619004 107.6656827 3.26967981 121.87951555 3.25890467 136.09337007 C3.24996718 148.25936253 3.25152646 160.42531682 3.26074219 172.59130859 C3.27147157 186.7619136 3.27564475 200.93249597 3.26951766 215.10310447 C3.26888064 216.61716644 3.2682519 218.1312284 3.26763153 219.64529037 C3.26732298 220.39000289 3.26701443 221.13471541 3.26669653 221.90199498 C3.26497785 227.12145809 3.26786666 232.34090672 3.27259064 237.56036758 C3.27822907 243.92939229 3.2766211 250.29836776 3.26602915 256.6673869 C3.26081255 259.90982192 3.25974321 263.15215927 3.26532745 266.3945961 C3.32317734 303.41324726 3.32317734 303.41324726 -4.9375 315.9375 C-7.1791581 318.1791581 -8.98930277 319.08006474 -12 320 C-11 317 -11 317 -8.6875 315.375 C-5.02088059 312.13473168 -3.76346994 308.47783052 -2 304 C-1.67 303.34 -1.34 302.68 -1 302 C0.11661874 294.25012755 0.14093895 286.44254221 0.12025452 278.62971497 C0.12110894 277.43200256 0.12196337 276.23429015 0.12284368 275.00028342 C0.12419697 271.70726335 0.12110631 268.41428348 0.11606562 265.12126815 C0.11172052 261.55837441 0.11321041 257.99548232 0.1139679 254.43258667 C0.11449057 248.27003862 0.11137063 242.1075012 0.10573006 235.94495583 C0.09758021 227.03510605 0.09499627 218.12526139 0.09374207 209.21540829 C0.09155701 194.75745352 0.08491177 180.29950443 0.07543945 165.84155273 C0.06625118 151.80249052 0.05917727 137.76342985 0.05493164 123.72436523 C0.05466892 122.85803948 0.05440619 121.99171372 0.05413551 121.09913567 C0.05283041 116.75274793 0.05156672 112.40636017 0.05032361 108.05997241 C0.03996802 72.03997761 0.0223646 36.01998925 0 0 Z " fill="#2B2B2B" transform="translate(1022,467)"/>
<path d="M0 0 C4.72069795 0.55634106 8.20564697 1.89038952 12.40234375 4.09765625 C12.99784027 4.40798798 13.59333679 4.7183197 14.20687866 5.03805542 C16.12136927 6.03826852 18.02942158 7.05011687 19.9375 8.0625 C21.24662659 8.74947024 22.55611651 9.43574854 23.8659668 10.12133789 C27.58307726 12.07010327 31.29219097 14.03359493 35 16 C36.39557129 16.73814941 36.39557129 16.73814941 37.81933594 17.49121094 C41.88836995 19.64463362 45.95012272 21.8106881 50 24 C46.1381808 25.28727307 44.60772482 24.09309016 41.09725952 22.34469604 C40.30977325 21.93961823 39.52228699 21.53454041 38.7109375 21.1171875 C37.8930777 20.70590607 37.0752179 20.29462463 36.23257446 19.87088013 C33.60857979 18.54818847 30.99193568 17.21159401 28.375 15.875 C26.63455466 14.99652341 24.89367382 14.11890905 23.15234375 13.2421875 C15.35107992 9.3006669 7.61614256 5.29094134 0 1 C0 0.67 0 0.34 0 0 Z " fill="#4A4A4A" transform="translate(276,758)"/>
<path d="M0 0 C4.87856673 0.55537049 8.45795577 2.0255274 12.7890625 4.30859375 C13.41477142 4.63537613 14.04048035 4.96215851 14.68515015 5.29884338 C16.6693054 6.33727587 18.64716989 7.38707925 20.625 8.4375 C21.96053028 9.1394472 23.2964644 9.84062662 24.6328125 10.54101562 C27.08414218 11.82653625 29.53241721 13.11728559 31.97900391 14.41186523 C34.30731579 15.63585657 36.64085827 16.83706828 39 18 C39 18.66 39 19.32 39 20 C34.97234718 18.73374299 31.25193772 17.24965499 27.48046875 15.35546875 C26.45759766 14.84306641 25.43472656 14.33066406 24.38085938 13.80273438 C22.80014648 13.00319336 22.80014648 13.00319336 21.1875 12.1875 C20.14529297 11.66607422 19.10308594 11.14464844 18.02929688 10.60742188 C11.93734355 7.54423631 5.92696225 4.37167023 0 1 C0 0.67 0 0.34 0 0 Z " fill="#4C4C4C" transform="translate(198,718)"/>
<path d="M0 0 C4.87856673 0.55537049 8.45795577 2.0255274 12.7890625 4.30859375 C13.41477142 4.63537613 14.04048035 4.96215851 14.68515015 5.29884338 C16.6693054 6.33727587 18.64716989 7.38707925 20.625 8.4375 C21.96053028 9.1394472 23.2964644 9.84062662 24.6328125 10.54101562 C27.08414218 11.82653625 29.53241721 13.11728559 31.97900391 14.41186523 C34.30731579 15.63585657 36.64085827 16.83706828 39 18 C39 18.66 39 19.32 39 20 C34.97234718 18.73374299 31.25193772 17.24965499 27.48046875 15.35546875 C26.45759766 14.84306641 25.43472656 14.33066406 24.38085938 13.80273438 C22.80014648 13.00319336 22.80014648 13.00319336 21.1875 12.1875 C20.14529297 11.66607422 19.10308594 11.14464844 18.02929688 10.60742188 C11.93734355 7.54423631 5.92696225 4.37167023 0 1 C0 0.67 0 0.34 0 0 Z " fill="#4C4C4C" transform="translate(120,678)"/>
<path d="M0 0 C4.75481646 0.57634139 7.97048212 2.55068521 12 5 C12 5.66 12 6.32 12 7 C13.10057739 7.18357056 13.10057739 7.18357056 14.22338867 7.37084961 C16.91852094 7.98153772 18.97441843 8.81427128 21.42578125 10.06640625 C22.22177734 10.46923828 23.01777344 10.87207031 23.83789062 11.28710938 C24.65451172 11.70798828 25.47113281 12.12886719 26.3125 12.5625 C27.56643555 13.19961914 27.56643555 13.19961914 28.84570312 13.84960938 C30.89996426 14.8943479 32.95120292 15.94459762 35 17 C35 17.66 35 18.32 35 19 C28.38805964 16.94166995 22.50057033 13.81423042 16.375 10.625 C15.24320313 10.0475 14.11140625 9.47 12.9453125 8.875 C11.85734375 8.31039062 10.769375 7.74578125 9.6484375 7.1640625 C8.66020996 6.65311035 7.67198242 6.1421582 6.65380859 5.61572266 C4.00420894 4.00256254 2.08536837 2.28197292 0 0 Z " fill="#4E4E4E" transform="translate(46,639)"/>
<path d="M0 0 C4.6030029 0.61844569 8.36619885 2.51249524 12.4375 4.625 C13.85280284 5.34647531 15.26816877 6.06782684 16.68359375 6.7890625 C17.39757324 7.15547852 18.11155273 7.52189453 18.84716797 7.89941406 C22.21954891 9.62346637 25.60999579 11.31094527 29 13 C31 14 33 15 35 16 C35 16.66 35 17.32 35 18 C30.91995332 16.71978607 27.15974644 15.20343658 23.33984375 13.28515625 C22.29892578 12.76373047 21.25800781 12.24230469 20.18554688 11.70507812 C19.11369141 11.16302734 18.04183594 10.62097656 16.9375 10.0625 C15.86177734 9.52431641 14.78605469 8.98613281 13.67773438 8.43164062 C3.96673673 3.54904974 3.96673673 3.54904974 0 1 C0 0.67 0 0.34 0 0 Z " fill="#4F4F4F" transform="translate(241,740)"/>
<path d="M0 0 C4.6030029 0.61844569 8.36619885 2.51249524 12.4375 4.625 C13.85280284 5.34647531 15.26816877 6.06782684 16.68359375 6.7890625 C17.39757324 7.15547852 18.11155273 7.52189453 18.84716797 7.89941406 C22.21954891 9.62346637 25.60999579 11.31094527 29 13 C31 14 33 15 35 16 C35 16.66 35 17.32 35 18 C30.91995332 16.71978607 27.15974644 15.20343658 23.33984375 13.28515625 C22.29892578 12.76373047 21.25800781 12.24230469 20.18554688 11.70507812 C19.11369141 11.16302734 18.04183594 10.62097656 16.9375 10.0625 C15.86177734 9.52431641 14.78605469 8.98613281 13.67773438 8.43164062 C3.96673673 3.54904974 3.96673673 3.54904974 0 1 C0 0.67 0 0.34 0 0 Z " fill="#4F4F4F" transform="translate(163,700)"/>
<path d="M0 0 C4.6030029 0.61844569 8.36619885 2.51249524 12.4375 4.625 C13.85280284 5.34647531 15.26816877 6.06782684 16.68359375 6.7890625 C17.39757324 7.15547852 18.11155273 7.52189453 18.84716797 7.89941406 C22.21954891 9.62346637 25.60999579 11.31094527 29 13 C31 14 33 15 35 16 C35 16.66 35 17.32 35 18 C30.91995332 16.71978607 27.15974644 15.20343658 23.33984375 13.28515625 C22.29892578 12.76373047 21.25800781 12.24230469 20.18554688 11.70507812 C19.11369141 11.16302734 18.04183594 10.62097656 16.9375 10.0625 C15.86177734 9.52431641 14.78605469 8.98613281 13.67773438 8.43164062 C3.96673673 3.54904974 3.96673673 3.54904974 0 1 C0 0.67 0 0.34 0 0 Z " fill="#4F4F4F" transform="translate(85,660)"/>
<path d="M0 0 C4.33629696 2.78067473 8.29068373 5.81455522 12.1875 9.1875 C13.31966246 10.15700961 14.4524875 11.12574596 15.5859375 12.09375 C16.15151367 12.57714844 16.71708984 13.06054688 17.29980469 13.55859375 C21.4803188 17.10278607 25.74470281 20.54630188 30 24 C29.34 24.33 28.68 24.66 28 25 C27.27554688 24.39671875 26.55109375 23.7934375 25.8046875 23.171875 C19.87376588 18.17568777 19.87376588 18.17568777 13.5625 13.6875 C11.02313814 12.01523731 9.10415981 10.17930838 7 8 C6.34 7.67 5.68 7.34 5 7 C5 6.34 5 5.68 5 5 C4.360625 4.731875 3.72125 4.46375 3.0625 4.1875 C1 3 1 3 0 0 Z " fill="#494949" transform="translate(969,409)"/>
<path d="M0 0 C4.10218448 2.28571903 7.5926811 5.05950504 11.125 8.125 C12.26747248 9.10635036 13.41071585 10.0868039 14.5546875 11.06640625 C15.12670898 11.55641113 15.69873047 12.04641602 16.28808594 12.55126953 C19.78603038 15.5114524 23.37355958 18.36210758 26.953125 21.22265625 C29 23 29 23 30 25 C25.64560185 23.58247111 23.04453228 21.45771868 19.75 18.3125 C15.02810517 13.90242841 10.16136176 9.87877888 5 6 C3.29668066 4.71382009 1.60949271 3.40181624 0 2 C0 1.34 0 0.68 0 0 Z " fill="#4F4F4F" transform="translate(924,372)"/>
<path d="M0 0 C4.36288689 2.79538262 8.33225383 5.85509638 12.25 9.25 C17.73985303 13.95479532 23.32004869 18.52527538 29 23 C25.3669982 23 24.69968159 22.24583912 21.9375 20 C21.14988281 19.36578125 20.36226562 18.7315625 19.55078125 18.078125 C18.70902344 17.39234375 17.86726562 16.7065625 17 16 C15.20839184 14.58325935 13.41672603 13.16659159 11.625 11.75 C7.31714109 8.33106436 7.31714109 8.33106436 5.3984375 6.328125 C3.92277875 4.73870004 3.92277875 4.73870004 1 4 C0.3125 1.9375 0.3125 1.9375 0 0 Z " fill="#4D4D4D" transform="translate(895,348)"/>
<path d="M0 0 C1.71568634 3.16047484 2.73307929 6.30674217 3.75 9.75 C6.76301756 18.87799786 11.2229077 23.66277979 19 29 C19.33 29.99 19.66 30.98 20 32 C12.50922275 29.39903568 7.71156708 23.88780011 4.125 16.9375 C1.59378685 11.3807627 -0.37649073 6.21209702 0 0 Z " fill="#343434" transform="translate(26,607)"/>
<path d="M0 0 C0.33 0 0.66 0 1 0 C0.64563793 9.4791855 -1.05234618 18.05234618 -8 25 C-10.75 26.3125 -10.75 26.3125 -13 27 C-12 24 -12 24 -9.6875 22.375 C-3.43403338 16.84868066 -1.93104546 7.82658575 0 0 Z " fill="#3E3E3E" transform="translate(1023,760)"/>
<path d="M0 0 C4.25917498 2.36797415 7.82149794 5.2171212 11.5 8.375 C12.05558594 8.84421875 12.61117187 9.3134375 13.18359375 9.796875 C16.6188206 12.72287999 19.85062982 15.76837015 23 19 C19.56072421 17.7580393 16.74792181 16.44259716 14 14 C14 13.34 14 12.68 14 12 C13.44828125 11.7525 12.8965625 11.505 12.328125 11.25 C9.54863293 9.75765526 7.2185293 7.96327477 4.75 6 C3.85796875 5.29875 2.9659375 4.5975 2.046875 3.875 C1.37140625 3.25625 0.6959375 2.6375 0 2 C0 1.34 0 0.68 0 0 Z " fill="#535353" transform="translate(867,325)"/>
<path d="M0 0 C3.75730247 1.6281644 6.616823 4.01401917 9.75 6.625 C11.22726562 7.85089844 11.22726562 7.85089844 12.734375 9.1015625 C13.85585938 10.04128906 13.85585938 10.04128906 15 11 C14.01 11.33 13.02 11.66 12 12 C9.3125 10.1875 9.3125 10.1875 7 8 C7 7.34 7 6.68 7 6 C6.401875 5.731875 5.80375 5.46375 5.1875 5.1875 C3.01680046 4.00912025 1.61265143 2.85454914 0 1 C0 0.67 0 0.34 0 0 Z " fill="#4A4A4A" transform="translate(954,397)"/>
<path d="M0 0 C0.44730469 0.39832031 0.89460938 0.79664063 1.35546875 1.20703125 C4.11818542 3.62809 6.69673917 5.82199908 9.875 7.6875 C12 9 12 9 13 12 C9.02031425 10.66182195 6.61251238 8.99662286 3.6875 6 C2.99011719 5.29875 2.29273438 4.5975 1.57421875 3.875 C0 2 0 2 0 0 Z " fill="#464646" transform="translate(33,627)"/>
<path d="M0 0 C5.28137429 0.51525603 8.57221156 2.25477117 13 5 C10.34501768 6.0169313 9.30844625 6.13022151 6.640625 5.00390625 C5.85171875 4.52824219 5.0628125 4.05257812 4.25 3.5625 C3.45078125 3.08941406 2.6515625 2.61632812 1.828125 2.12890625 C1.22484375 1.75636719 0.6215625 1.38382813 0 1 C0 0.67 0 0.34 0 0 Z " fill="#606060" transform="translate(276,758)"/>
<path d="M0 0 C5.28137429 0.51525603 8.57221156 2.25477117 13 5 C10.34501768 6.0169313 9.30844625 6.13022151 6.640625 5.00390625 C5.85171875 4.52824219 5.0628125 4.05257812 4.25 3.5625 C3.45078125 3.08941406 2.6515625 2.61632812 1.828125 2.12890625 C1.22484375 1.75636719 0.6215625 1.38382813 0 1 C0 0.67 0 0.34 0 0 Z " fill="#606060" transform="translate(198,718)"/>
<path d="M0 0 C5.28137429 0.51525603 8.57221156 2.25477117 13 5 C10.34501768 6.0169313 9.30844625 6.13022151 6.640625 5.00390625 C5.85171875 4.52824219 5.0628125 4.05257812 4.25 3.5625 C3.45078125 3.08941406 2.6515625 2.61632812 1.828125 2.12890625 C1.22484375 1.75636719 0.6215625 1.38382813 0 1 C0 0.67 0 0.34 0 0 Z " fill="#606060" transform="translate(120,678)"/>
<path d="M0 0 C4.75481646 0.57634139 7.97048212 2.55068521 12 5 C9.44345185 5.95582656 8.39658231 6.17802782 5.859375 5.0390625 C5.16328125 4.57242188 4.4671875 4.10578125 3.75 3.625 C3.04359375 3.16351562 2.3371875 2.70203125 1.609375 2.2265625 C1.07828125 1.82179688 0.5471875 1.41703125 0 1 C0 0.67 0 0.34 0 0 Z " fill="#666666" transform="translate(46,639)"/>
<path d="M0 0 C0.66 0.33 1.32 0.66 2 1 C0.88200014 2.33920838 -0.24461897 3.67122556 -1.375 5 C-2.00148438 5.7425 -2.62796875 6.485 -3.2734375 7.25 C-4.12808594 8.11625 -4.12808594 8.11625 -5 9 C-5.66 9 -6.32 9 -7 9 C-5.44499019 5.18315774 -2.96404505 2.80804268 0 0 Z " fill="#BABABA" transform="translate(39,297)"/>
<path d="M0 0 C1.27609323 0.90933009 2.54565553 1.82782853 3.8125 2.75 C4.87404297 3.51570313 4.87404297 3.51570313 5.95703125 4.296875 C8.02977691 6.02482358 9.47375854 7.78526476 11 10 C6.23439379 8.59835111 3.04117557 5.84588526 0 2 C0 1.34 0 0.68 0 0 Z " fill="#444444" transform="translate(943,387)"/>
<path d="M0 0 C1.29608947 0.93137592 2.58671632 1.8703566 3.875 2.8125 C4.59429688 3.33457031 5.31359375 3.85664063 6.0546875 4.39453125 C8 6 8 6 10 9 C5.57238086 7.60846256 3.0443745 5.47928514 0 2 C0 1.34 0 0.68 0 0 Z " fill="#454545" transform="translate(880,335)"/>
<path d="M0 0 C6.57142857 4 6.57142857 4 8 8 C7.01 7.67 6.02 7.34 5 7 C5 6.34 5 5.68 5 5 C4.360625 4.731875 3.72125 4.46375 3.0625 4.1875 C1 3 1 3 0 0 Z " fill="#5D5D5D" transform="translate(969,409)"/>
</svg>
